<?xml version="1.0" encoding="UTF-8"?>
<svg xmlns="http://www.w3.org/2000/svg" xmlns:xlink="http://www.w3.org/1999/xlink" width="1024px" height="1024px" viewBox="0 0 1024 1024" version="1.1">
<g id="surface1">
<path style=" stroke:none;fill-rule:nonzero;fill:rgb(58.823529%,0%,58.823529%);fill-opacity:1;" d="M 978.710938 468.800781 L 555.1875 45.296875 C 530.800781 20.902344 491.246094 20.902344 466.839844 45.296875 L 378.902344 133.257812 L 490.453125 244.808594 C 516.382812 236.046875 546.109375 241.929688 566.769531 262.597656 C 587.554688 283.394531 593.382812 313.375 584.398438 339.398438 L 691.929688 446.917969 C 717.949219 437.945312 747.953125 443.75 768.726562 464.558594 C 797.757812 493.589844 797.757812 540.628906 768.726562 569.683594 C 739.675781 598.722656 692.636719 598.722656 663.574219 569.683594 C 641.742188 547.828125 636.335938 515.738281 647.410156 488.839844 L 547.121094 388.558594 L 547.121094 652.445312 C 554.195312 655.953125 560.878906 660.617188 566.769531 666.507812 C 595.800781 695.539062 595.800781 742.578125 566.769531 771.640625 C 537.738281 800.664062 490.664062 800.664062 461.65625 771.640625 C 432.625 742.570312 432.625 695.527344 461.65625 666.507812 C 468.832031 659.339844 477.140625 653.914062 486.007812 650.28125 L 486.007812 383.9375 C 477.140625 380.304688 468.855469 374.933594 461.65625 367.710938 C 439.664062 345.730469 434.375 313.449219 445.652344 286.445312 L 335.683594 176.457031 L 45.265625 466.839844 C 20.871094 491.257812 20.871094 530.8125 45.265625 555.207031 L 468.8125 978.722656 C 493.199219 1003.117188 532.742188 1003.117188 557.160156 978.722656 L 978.710938 557.171875 C 1003.109375 532.777344 1003.109375 493.199219 978.710938 468.800781 Z M 978.710938 468.800781 "/>
</g>
</svg>
